<svg id="Layer_1" data-name="Layer 1" xmlns="http://www.w3.org/2000/svg" viewBox="0 0 647.21 470.16"><defs><style>.cls-1{fill:none;stroke:#fff;stroke-linecap:round;stroke-linejoin:round;stroke-width:6px;}</style></defs><path class="cls-1" d="M492.5,364.5s83,4,146-75c0,0,5.24,74.86-42,195-46,117-72,100-54-6s88.11-228.56,163-266c74-37,67,52-57,207,0,0,27-26,27,16,0,41,21,59,58,5,.45-2.17,12,62.92,51,16,41.9-50.48,52-115,36-128s-54,44-41,110,87.55,36.55,89-20c1-39-48.1,38.28-18,55,9,5,34,3,48-15,9.51-12.23,6.67-24.67,3-21-7,7-6,31,24,12s43-40,41-26,5,99-22,169-58,96-64,59,20.91-132.22,140-207c43-27,73-32,88-32,21,0,28.38,11.75,24,18" transform="translate(-489.5 -201.15)"/><path class="cls-1" d="M739,406c-2,2-3,4,1,3" transform="translate(-489.5 -201.15)"/><path class="cls-1" d="M610,514s4,14,4,27" transform="translate(-489.5 -201.15)"/><path class="cls-1" d="M607.5,512.5c0,.54,14.24-12.52,17-3,2,7-5,13-7,15,0,0,5.61-2.76,9,0,1.85,1.51,4,4.07,2,11-4,14-11,10-12,8" transform="translate(-489.5 -201.15)"/><path class="cls-1" d="M639.5,509.5s1,33,6,36" transform="translate(-489.5 -201.15)"/><line class="cls-1" x1="151" y1="308.35" x2="164" y2="306.35"/><path class="cls-1" d="M641.52,525.92s10-.42,11,.58" transform="translate(-489.5 -201.15)"/><path class="cls-1" d="M646.5,545.5c.07-.59,9.06.48,11-1" transform="translate(-489.5 -201.15)"/><path class="cls-1" d="M668.5,507.5s0,29,5,37" transform="translate(-489.5 -201.15)"/><path class="cls-1" d="M664.5,516.5s16.18-22.34,13.5.5c-.44,3.72-2.5,10.5-6.5,13.5,0,0,6.89-6.6,11,3,3,7,5,12,7,12" transform="translate(-489.5 -201.15)"/><path class="cls-1" d="M709.5,517.5a37.84,37.84,0,0,0-3-7c-2.17-3.5-5.86-5.86-7,1-2.16,13-2.31,38.91,11,33,9-4,12-12,8-16-1-1-7,3-7,3" transform="translate(-489.5 -201.15)"/><path class="cls-1" d="M729.5,519.5v27c0,1-1.47-41.79,8-38,5,2,6,30,10,38" transform="translate(-489.5 -201.15)"/><path class="cls-1" d="M728.5,532.5a54.72,54.72,0,0,1,20-4" transform="translate(-489.5 -201.15)"/><path class="cls-1" d="M759.5,546.5s0-43,6-36c0,0,5,19,5,23,0,0,3.88-23,8-24s4.89,37,11,37" transform="translate(-489.5 -201.15)"/><path class="cls-1" d="M797.64,546.5s0-39.55,4.27-38.48,15,37.41,15,37.41" transform="translate(-489.5 -201.15)"/><path class="cls-1" d="M795.5,529.4s15-4.28,18.17-4.28" transform="translate(-489.5 -201.15)"/><path class="cls-1" d="M835.12,512c.18-2.87-16.58-7.63-13.6,3.14,2.12,7.68,26,23.63,16.74,28.26-8.37,4.19-15.7,2.09-13.6-3.14" transform="translate(-489.5 -201.15)"/><path class="cls-1" d="M857.44,512.85s-6.33-10.54-9.49,1.06-2.17,30.57,7.38,30.57c7.38,0,8.43-3.16,8.43-3.16" transform="translate(-489.5 -201.15)"/><path class="cls-1" d="M874.67,516.62s-4.44-6.66-5.55,8.88,4.44,22.19,14.43,17.75,6.65-31.07-13.32-34.4" transform="translate(-489.5 -201.15)"/></svg>